<?xml version="1.0" standalone="no"?><!DOCTYPE svg PUBLIC "-//W3C//DTD SVG 1.1//EN" "http://www.w3.org/Graphics/SVG/1.1/DTD/svg11.dtd"><svg t="1615691220643" class="icon" viewBox="0 0 1024 1024" version="1.1" xmlns="http://www.w3.org/2000/svg" p-id="1911" xmlns:xlink="http://www.w3.org/1999/xlink" width="200" height="200"><defs><style type="text/css"></style></defs><path d="M0.701971 0.292488h1023.707512v1023.707512H0.701971z" fill="#4ECBBC" p-id="1912"></path><path d="M282.397029 876.688489V147.603999h214.159612q96.023765 0 153.439132 45.891345t57.429991 121.67495q0 60.252499-34.118709 106.377835T579.403827 486.992288v1.886547q74.365039 8.467524 118.852443 56.245415t44.487403 121.20697q0 94.137218-67.550071 152.26918T502.201657 876.688489z m94.137218-646.719909v228.286776H462.13082q68.237418 0 107.079806-33.182748t38.827763-92.016681q0-103.072722-137.469294-103.072722z m0 310.183377v254.17195h112.958812q73.897058 0 114.070266-34.118708T643.882776 665.409883q0-125.199429-169.920822-125.199429z" fill="#FFFFFF" p-id="1913"></path><path d="M502.201657 882.538246H276.547272V141.754242h220.009369c65.063925 0 117.931105 15.867466 157.09523 47.178292 39.558983 31.617938 59.62365 74.101799 59.62365 126.23776 0 41.255413-11.860383 78.211254-35.274036 109.858441C658.097686 451.893745 631.642159 472.367895 599.073636 485.924707c42.118252 8.101914 76.851185 26.616395 103.452956 55.177835 30.550357 32.817138 46.052214 74.93539 46.052214 125.184804 0 64.244959-23.399029 116.995144-69.582862 156.700372-45.90597 39.51511-105.383376 59.550528-176.794287 59.550528z m-213.95487-11.699514h213.95487c68.529906 0 125.433419-19.011711 169.160354-56.713396 43.463696-37.409197 65.502656-87.146758 65.502656-147.83799 0-47.192916-14.434276-86.634904-42.907969-117.21451s-67.272208-48.962468-115.225593-54.417366l-5.191659-0.584976v-11.363153l4.050957-1.301571c38.476778-12.41611 69.085633-33.72385 90.992973-63.338246s32.978006-64.201085 32.978006-102.89723c0-48.421365-18.587604-87.746358-55.221708-117.097515-37.043588-29.599771-87.439246-44.604399-149.797657-44.604399H288.246787z m201.246272-70.665067h-118.808569v-265.871466h103.277464c116.629534 0 175.77058 44.092545 175.77058 131.049186 0 42.089003-14.229534 75.505741-42.308369 99.299629-27.786347 23.60377-67.462325 35.522651-117.931106 35.522651z m-107.109054-11.699515h107.109054c47.617024 0 84.748358-11.012168 110.35567-32.729391 25.329449-21.483233 38.18429-51.887346 38.18429-90.378749 0-40.129334-13.161954-69.304999-40.100086-89.208798s-68.866267-30.155498-123.970979-30.155498h-91.577949zM462.13082 464.105113h-91.44633v-239.98629h99.986975c95.058555 0 143.319052 36.648729 143.319052 108.922479 0 40.831305-13.761554 73.282833-40.9483 96.520994C546.22108 452.464096 508.928877 464.105113 462.13082 464.105113z m-79.819937-11.699515H462.13082c43.873179 0 78.606113-10.690431 103.277463-31.778806 24.408112-20.854384 36.780348-50.322536 36.780349-87.570865 0-65.429534-43.039589-97.222965-131.619537-97.222965h-88.18509z" fill="#FFFFFF" p-id="1914"></path></svg>