<?xml version="1.0" standalone="no"?><!DOCTYPE svg PUBLIC "-//W3C//DTD SVG 1.1//EN" "http://www.w3.org/Graphics/SVG/1.1/DTD/svg11.dtd"><svg t="1615698053735" class="icon" viewBox="0 0 1024 1024" version="1.1" xmlns="http://www.w3.org/2000/svg" p-id="3177" xmlns:xlink="http://www.w3.org/1999/xlink" width="200" height="200"><defs><style type="text/css"></style></defs><path d="M281 494.15a32.89 32.89 0 0 0 9.92-4.65 18.18 18.18 0 0 0 5.62-7.2 25.37 25.37 0 0 0 1.76-9.61 24.63 24.63 0 0 0-1.76-9.79 16.17 16.17 0 0 0-5.92-6.4 26.41 26.41 0 0 0-9.61-3.84v-0.15a63.73 63.73 0 0 0-13.45-1.28h-20.84v44.53h20.18a54.42 54.42 0 0 0 14.1-1.61zM298 527.33a31.86 31.86 0 0 0-11.37-4.17 76.55 76.55 0 0 0-15.86-1.46h-24v50.8h24a70.23 70.23 0 0 0 15.86-1.61 35.9 35.9 0 0 0 11.37-5 22.41 22.41 0 0 0 6.9-8.31 26.63 26.63 0 0 0 2.56-11.87 21.65 21.65 0 0 0-2.56-10.89 16.72 16.72 0 0 0-6.9-7.49z" fill="#00D8C8" p-id="3178"></path><path d="M512.61 112.21h-0.71c-220.72 0-399.65 179.09-399.65 400s178.93 400 399.65 400h0.71c220.72 0 399.65-179.09 399.65-400 0-220.92-178.93-400-399.65-400z m-172.82 448.1a44 44 0 0 1-3.84 10.57 41.63 41.63 0 0 1-14.26 16 64.06 64.06 0 0 1-21.14 9.44 104.61 104.61 0 0 1-26.6 3.21h-61.69V424.92h57.2a133 133 0 0 1 24.85 2.08 59.6 59.6 0 0 1 19.85 7.23 33.4 33.4 0 0 1 13.13 13.3 40.11 40.11 0 0 1 4.82 20.19V467.73a45.51 45.51 0 0 1-6.25 22.88 41.68 41.68 0 0 1-7.38 9.14 32.52 32.52 0 0 1-9.91 5.77v1.13a48.37 48.37 0 0 1 13 5.12 39.81 39.81 0 0 1 10.24 8.31 36 36 0 0 1 6.73 12 48.45 48.45 0 0 1 2.56 16 55.2 55.2 0 0 1-1.31 12.23zM516 531.67a114.65 114.65 0 0 1-4.17 17.94 86.4 86.4 0 0 1-6.9 15.71 94.76 94.76 0 0 1-9 13.13 74.25 74.25 0 0 1-11.39 10.42 69 69 0 0 1-12.8 7.71 67.36 67.36 0 0 1-15.06 4.64 86.49 86.49 0 0 1-33 0 64.1 64.1 0 0 1-15.06-4.64 68.22 68.22 0 0 1-13-7.71 64.82 64.82 0 0 1-11.37-10.42 87.73 87.73 0 0 1-9.14-13.13 93.58 93.58 0 0 1-6.73-15.71 114.81 114.81 0 0 1-4.17-17.94 141.53 141.53 0 0 1 0-40.51 113.76 113.76 0 0 1 4.17-17.8A82.18 82.18 0 0 1 375.2 458a74 74 0 0 1 9.14-12.8 69.16 69.16 0 0 1 11.37-10.26 57.48 57.48 0 0 1 13-7.35 63.31 63.31 0 0 1 15.06-4.67 95.64 95.64 0 0 1 33 0 75.65 75.65 0 0 1 27.88 12A94 94 0 0 1 496 445.18a91.43 91.43 0 0 1 9 12.8 81.67 81.67 0 0 1 6.9 15.54 111.75 111.75 0 0 1 4.1 17.61 141.45 141.45 0 0 1 0 40.54z m146.25 38.6a46.4 46.4 0 0 1-12.5 17 59.05 59.05 0 0 1-20 11.55 81.92 81.92 0 0 1-26.75 4.13 95.28 95.28 0 0 1-17.32-1.61 93.13 93.13 0 0 1-32.2-13 90.19 90.19 0 0 1-13.6-10.89l19.85-23.87a78.32 78.32 0 0 0 20.83 13.78 56.1 56.1 0 0 0 23.22 5.45 44.33 44.33 0 0 0 11.7-1.46 23.29 23.29 0 0 0 8.66-4.14 16 16 0 0 0 5.45-6.43 19.71 19.71 0 0 0 1.76-8.33 16.48 16.48 0 0 0-1.93-8.16 25 25 0 0 0-5.27-6.1 130 130 0 0 0-18.72-9.29l-23.08-9.9a96.24 96.24 0 0 1-13.13-6.88 58.69 58.69 0 0 1-11.22-9.77 45.94 45.94 0 0 1-7.86-13.3 49.06 49.06 0 0 1-2.89-17 47.58 47.58 0 0 1 4.34-20 50.49 50.49 0 0 1 12.32-16 59 59 0 0 1 18.9-10.74 75 75 0 0 1 24.19-3.88 79.67 79.67 0 0 1 15.06 1.43 67 67 0 0 1 14.25 4.49 62.82 62.82 0 0 1 13.3 6.9 83.25 83.25 0 0 1 11.55 9.61v0.14l-17.44 22a61.22 61.22 0 0 0-17.14-10.57 49.82 49.82 0 0 0-19.58-3.88 30.11 30.11 0 0 0-18.27 5 15.74 15.74 0 0 0-6.73 13.6 14.31 14.31 0 0 0 2.26 7.86 16 16 0 0 0 5.77 5.92 106.12 106.12 0 0 0 18.9 9l22.74 9.79a71 71 0 0 1 14.26 7.53 51.08 51.08 0 0 1 11.22 9.94 40.73 40.73 0 0 1 6.85 13.09 52.89 52.89 0 0 1 2.58 16.82 48.36 48.36 0 0 1-4.29 20.17z m145.63 0a46.41 46.41 0 0 1-12.5 17 59.19 59.19 0 0 1-20 11.55 82.17 82.17 0 0 1-26.72 4.18 95.34 95.34 0 0 1-17.32-1.61 104.81 104.81 0 0 1-16.67-4.94 87.32 87.32 0 0 1-15.51-8 98 98 0 0 1-13.8-10.89l19.88-23.87a81 81 0 0 0 21 13.78 55.81 55.81 0 0 0 23.07 5.45 45.17 45.17 0 0 0 11.87-1.46 25.07 25.07 0 0 0 8.63-4.14 17.91 17.91 0 0 0 5.45-6.43 19.71 19.71 0 0 0 1.74-8.39 16.23 16.23 0 0 0-1.93-8.16 25 25 0 0 0-5.27-6.1A127.81 127.81 0 0 0 751 529l-23.2-10a90 90 0 0 1-12.8-6.88 58.72 58.72 0 0 1-11.22-9.77 45.85 45.85 0 0 1-7.83-13.3 49.06 49.06 0 0 1-2.89-17 47.57 47.57 0 0 1 4.32-20 51.55 51.55 0 0 1 12.17-16 60.57 60.57 0 0 1 19.23-10.74 77.41 77.41 0 0 1 39.1-2.41 63.34 63.34 0 0 1 14.26 4.52 66.65 66.65 0 0 1 13.13 7 83.34 83.34 0 0 1 11.54 9.58l-17.47 22a61.22 61.22 0 0 0-17.14-10.57 49.81 49.81 0 0 0-19.55-3.84 30.11 30.11 0 0 0-18.25 5 15.74 15.74 0 0 0-6.75 13.6 14.31 14.31 0 0 0 2.26 7.86 16 16 0 0 0 5.77 5.92 106.18 106.18 0 0 0 18.9 9l22.74 9.79a71 71 0 0 1 14.26 7.53 51.1 51.1 0 0 1 11.22 9.94 45.45 45.45 0 0 1 6.9 13.15 52.9 52.9 0 0 1 2.56 16.82 48.35 48.35 0 0 1-4.34 20.1z" fill="#00D8C8" p-id="3179"></path><path d="M470.86 467.44a36.82 36.82 0 0 0-13.15-11.85 37.42 37.42 0 0 0-17.62-4.17 36 36 0 0 0-30.45 16 57.32 57.32 0 0 0-8.48 18.75 97.8 97.8 0 0 0-3 25.3 99 99 0 0 0 3 25.33 62.79 62.79 0 0 0 8.48 19.38 39.55 39.55 0 0 0 13.13 12.17 35.85 35.85 0 0 0 17.32 4.34 36.48 36.48 0 0 0 17.62-4.34 39.39 39.39 0 0 0 13.15-12.17 62.79 62.79 0 0 0 8.48-19.38 104.86 104.86 0 0 0 2.89-25.33 103.54 103.54 0 0 0-2.89-25.3 57.36 57.36 0 0 0-8.48-18.73z" fill="#00D8C8" p-id="3180"></path></svg>